# xmcd
#
# Track frame offsets: 
#        150
#        23145
#        39775
#        63394
#        78999
#        95299
#        107789
#        126351
#        140616
#        161601
#        182787
#        207561
#        226897
#        246272
#        261688
#        282617
#        303326
#        317615
#        330448
#
# Disc length: 4641 seconds
#
# Revision: 0
# Processed by: cddbd v1.5.2PL0 Copyright (c) Steve Scherf et al.
# Submitted via: ExactAudioCopy v0.95b4
#
DISCID=12121f13
DTITLE=Various Artist - Soul Talkin´
DYEAR=2007
DGENRE=Funk
TTITLE0=Push/Soul Talking
TTITLE1=Bobby Byrd - The way to get down
TTITLE2=Lee Armstrong Express and the Sisters of Soul/Here´s what you ne
TTITLE2=ed
TTITLE3=Roger Troutman and the Human Body/Freedom
TTITLE4=Push/Cut me close
TTITLE5=Dean Francis and the Soulrockers/Funky Disposition
TTITLE6=Eddie Bo/Down by the river
TTITLE7=Lee Armstrong Express and the Sisters of Soul/I´m your lady
TTITLE8=RAD/Gotta be
TTITLE9=Lonnie Liston Smith/Space Princess
TTITLE10=Roy Ayers and the Soulciety/Everybody loves the sunshine
TTITLE11=RAD/Soul Society
TTITLE12=Vicki Anderson/Don´s throw your love in the garbagecan
TTITLE13=Eddie Bo/Kick it on Back
TTITLE14=Push/Fight it
TTITLE15=Bobby Byrd/I got it
TTITLE16=Lee Armstrong Express/Chicken´N Waffles
TTITLE17=Dean Francis/Sunday morning
TTITLE18=Sister of Soul/Baby Love
EXTD=
EXTT0=
EXTT1=
EXTT2=
EXTT3=
EXTT4=
EXTT5=
EXTT6=
EXTT7=
EXTT8=
EXTT9=
EXTT10=
EXTT11=
EXTT12=
EXTT13=
EXTT14=
EXTT15=
EXTT16=
EXTT17=
EXTT18=
PLAYORDER=
